# xmcd CD database file
#
# Track frame offsets:
#	150
#	21437
#	45159
#	71605
#	92567
#	118932
#	136107
#	176725
#	203666
#
# Disc length: 3063 seconds
#
# Revision: 0
# Processed by: cddbd v1.5.1PL0 Copyright (c) Steve Scherf et al.
# Submitted via: CDex 1.40Release
#
DISCID=750bf509
DTITLE=Derrin Nauendorf - Live at the Boardwalk
DYEAR=2002
DGENRE=Blues
TTITLE0=Ghost Town
TTITLE1=Leave Me Tonight
TTITLE2=I Won't Turn My Back
TTITLE3=Man Without a Clue
TTITLE4=Scared of Being Free
TTITLE5=Reason You Came Here
TTITLE6=Voodoo Child
TTITLE7=Shadows of Love
TTITLE8=Danielle
EXTD=YEAR: 2002 ID3G: 0
EXTT0=
EXTT1=
EXTT2=
EXTT3=
EXTT4=
EXTT5=
EXTT6=
EXTT7=
EXTT8=
PLAYORDER=
